<svg xmlns="http://www.w3.org/2000/svg" xmlns:xlink="http://www.w3.org/1999/xlink" width="1920" zoomAndPan="magnify" viewBox="0 0 1440 809.999993" height="1080" preserveAspectRatio="xMidYMid meet" version="1.0"><defs><g/><clipPath id="63a454272a"><path d="M 718.597656 302.53125 L 975.074219 302.53125 L 975.074219 559.007812 L 718.597656 559.007812 Z M 718.597656 302.53125 " clipRule="nonzero"/></clipPath><clipPath id="2b9ffaecc6"><path d="M 1332.96875 527.21875 L 1398.101562 527.21875 L 1398.101562 590.804688 L 1332.96875 590.804688 Z M 1332.96875 527.21875 " clipRule="nonzero"/></clipPath></defs><g fill="#014b21" fillOpacity="1"><g transform="translate(32.974386, 569.21167)"><g><path d="M 175.578125 -285.578125 C 202.429688 -285.578125 226.875 -279.289062 248.90625 -266.71875 C 270.945312 -254.15625 288.25 -236.859375 300.8125 -214.828125 C 313.382812 -192.796875 319.671875 -168.179688 319.671875 -140.984375 L 319.671875 -15.5 C 319.671875 -11.019531 318.289062 -7.316406 315.53125 -4.390625 C 312.78125 -1.460938 308.992188 0 304.171875 0 C 299.691406 0 295.988281 -1.460938 293.0625 -4.390625 C 290.144531 -7.316406 288.6875 -11.019531 288.6875 -15.5 L 288.6875 -55.78125 C 277.320312 -37.53125 261.738281 -23.15625 241.9375 -12.65625 C 222.144531 -2.15625 200.023438 3.09375 175.578125 3.09375 C 148.378906 3.09375 123.765625 -3.1875 101.734375 -15.75 C 79.703125 -28.3125 62.398438 -45.609375 49.828125 -67.640625 C 37.265625 -89.679688 30.984375 -114.128906 30.984375 -140.984375 C 30.984375 -168.179688 37.265625 -192.796875 49.828125 -214.828125 C 62.398438 -236.859375 79.703125 -254.15625 101.734375 -266.71875 C 123.765625 -279.289062 148.378906 -285.578125 175.578125 -285.578125 Z M 175.578125 -25.828125 C 196.921875 -25.828125 216.203125 -30.816406 233.421875 -40.796875 C 250.640625 -50.785156 264.15625 -64.554688 273.96875 -82.109375 C 283.78125 -99.671875 288.6875 -119.296875 288.6875 -140.984375 C 288.6875 -162.671875 283.78125 -182.289062 273.96875 -199.84375 C 264.15625 -217.40625 250.640625 -231.265625 233.421875 -241.421875 C 216.203125 -251.578125 196.921875 -256.65625 175.578125 -256.65625 C 154.234375 -256.65625 134.953125 -251.578125 117.734375 -241.421875 C 100.523438 -231.265625 86.925781 -217.40625 76.9375 -199.84375 C 66.957031 -182.289062 61.96875 -162.671875 61.96875 -140.984375 C 61.96875 -119.296875 66.957031 -99.671875 76.9375 -82.109375 C 86.925781 -64.554688 100.523438 -50.785156 117.734375 -40.796875 C 134.953125 -30.816406 154.234375 -25.828125 175.578125 -25.828125 Z M 175.578125 -25.828125 "/></g></g></g><g fill="#014b21" fillOpacity="1"><g transform="translate(383.586477, 569.21167)"><g><path d="M 268.546875 -281.96875 C 274.390625 -279.207031 277.3125 -274.734375 277.3125 -268.546875 C 277.3125 -266.128906 276.96875 -264.234375 276.28125 -262.859375 L 160.09375 -10.328125 C 156.644531 -3.097656 151.132812 0.515625 143.5625 0.515625 C 140.46875 0.515625 137.628906 -0.429688 135.046875 -2.328125 C 132.460938 -4.222656 130.484375 -6.890625 129.109375 -10.328125 L 11.359375 -262.34375 C 10.671875 -263.71875 10.328125 -265.609375 10.328125 -268.015625 C 10.328125 -274.210938 13.253906 -278.691406 19.109375 -281.453125 C 21.171875 -282.484375 23.234375 -283 25.296875 -283 C 31.148438 -283 35.457031 -280.070312 38.21875 -274.21875 L 144.078125 -44.921875 L 248.40625 -274.734375 C 251.15625 -280.585938 255.628906 -283.515625 261.828125 -283.515625 C 264.234375 -283.515625 266.472656 -283 268.546875 -281.96875 Z M 268.546875 -281.96875 "/></g></g></g><g fill="#014b21" fillOpacity="1"><g transform="translate(671.201977, 569.21167)"><g><path d="M 175.578125 3.09375 C 148.378906 3.09375 123.765625 -3.1875 101.734375 -15.75 C 79.703125 -28.3125 62.398438 -45.609375 49.828125 -67.640625 C 37.265625 -89.679688 30.984375 -114.128906 30.984375 -140.984375 C 30.984375 -168.179688 37.265625 -192.796875 49.828125 -214.828125 C 62.398438 -236.859375 79.703125 -254.15625 101.734375 -266.71875 C 123.765625 -279.289062 148.378906 -285.578125 175.578125 -285.578125 C 202.429688 -285.578125 226.875 -279.289062 248.90625 -266.71875 C 270.945312 -254.15625 288.25 -236.859375 300.8125 -214.828125 C 313.382812 -192.796875 319.671875 -168.179688 319.671875 -140.984375 C 319.671875 -114.128906 313.382812 -89.679688 300.8125 -67.640625 C 288.25 -45.609375 270.945312 -28.3125 248.90625 -15.75 C 226.875 -3.1875 202.429688 3.09375 175.578125 3.09375 Z M 175.578125 -25.828125 C 196.921875 -25.828125 216.203125 -30.816406 233.421875 -40.796875 C 250.640625 -50.785156 264.15625 -64.554688 273.96875 -82.109375 C 283.78125 -99.671875 288.6875 -119.296875 288.6875 -140.984375 C 288.6875 -162.671875 283.78125 -182.289062 273.96875 -199.84375 C 264.15625 -217.40625 250.640625 -231.265625 233.421875 -241.421875 C 216.203125 -251.578125 196.921875 -256.65625 175.578125 -256.65625 C 154.234375 -256.65625 134.953125 -251.578125 117.734375 -241.421875 C 100.523438 -231.265625 86.925781 -217.40625 76.9375 -199.84375 C 66.957031 -182.289062 61.96875 -162.671875 61.96875 -140.984375 C 61.96875 -119.296875 66.957031 -99.671875 76.9375 -82.109375 C 86.925781 -64.554688 100.523438 -50.785156 117.734375 -40.796875 C 134.953125 -30.816406 154.234375 -25.828125 175.578125 -25.828125 Z M 175.578125 -25.828125 "/></g></g></g><g fill="#014b21" fillOpacity="1"><g transform="translate(1021.814069, 569.21167)"><g><path d="M 173 -375.4375 C 147.863281 -375.4375 129.613281 -367.085938 118.25 -350.390625 C 106.894531 -333.691406 101.21875 -311.226562 101.21875 -283 L 101.21875 -272.15625 L 169.390625 -272.15625 C 173.515625 -272.15625 176.867188 -270.863281 179.453125 -268.28125 C 182.035156 -265.695312 183.328125 -262.335938 183.328125 -258.203125 C 183.328125 -254.078125 182.035156 -250.722656 179.453125 -248.140625 C 176.867188 -245.554688 173.515625 -244.265625 169.390625 -244.265625 L 101.21875 -244.265625 L 101.21875 -15.5 C 101.21875 -11.019531 99.753906 -7.316406 96.828125 -4.390625 C 93.898438 -1.460938 90.023438 0 85.203125 0 C 80.734375 0 77.035156 -1.460938 74.109375 -4.390625 C 71.179688 -7.316406 69.71875 -11.019531 69.71875 -15.5 L 69.71875 -244.265625 L 29.4375 -244.265625 C 25.300781 -244.265625 21.941406 -245.554688 19.359375 -248.140625 C 16.785156 -250.722656 15.5 -254.078125 15.5 -258.203125 C 15.5 -262.335938 16.785156 -265.695312 19.359375 -268.28125 C 21.941406 -270.863281 25.300781 -272.15625 29.4375 -272.15625 L 69.71875 -272.15625 L 69.71875 -283 C 69.71875 -319.832031 78.320312 -349.09375 95.53125 -370.78125 C 112.75 -392.476562 138.570312 -403.328125 173 -403.328125 C 177.476562 -403.328125 181.179688 -402.035156 184.109375 -399.453125 C 187.035156 -396.867188 188.5 -393.507812 188.5 -389.375 C 188.5 -385.25 187.035156 -381.894531 184.109375 -379.3125 C 181.179688 -376.726562 177.476562 -375.4375 173 -375.4375 Z M 173 -375.4375 "/></g></g></g><g fill="#014b21" fillOpacity="1"><g transform="translate(1210.287428, 569.21167)"><g><path d="M 72.296875 0 C 67.816406 0 64.113281 -1.460938 61.1875 -4.390625 C 58.269531 -7.316406 56.8125 -11.019531 56.8125 -15.5 L 56.8125 -266.984375 C 56.8125 -271.804688 58.269531 -275.59375 61.1875 -278.34375 C 64.113281 -281.101562 67.816406 -282.484375 72.296875 -282.484375 C 77.117188 -282.484375 80.90625 -281.101562 83.65625 -278.34375 C 86.414062 -275.59375 87.796875 -271.804688 87.796875 -266.984375 L 87.796875 -15.5 C 87.796875 -11.019531 86.414062 -7.316406 83.65625 -4.390625 C 80.90625 -1.460938 77.117188 0 72.296875 0 Z M 71.78125 -341.875 C 64.894531 -341.875 59.210938 -344.195312 54.734375 -348.84375 C 50.253906 -353.488281 48.015625 -359.253906 48.015625 -366.140625 C 48.015625 -373.710938 50.425781 -379.566406 55.25 -383.703125 C 60.070312 -387.835938 65.753906 -389.90625 72.296875 -389.90625 C 78.835938 -389.90625 84.429688 -387.835938 89.078125 -383.703125 C 93.722656 -379.566406 96.046875 -373.710938 96.046875 -366.140625 C 96.046875 -359.253906 93.722656 -353.488281 89.078125 -348.84375 C 84.429688 -344.195312 78.664062 -341.875 71.78125 -341.875 Z M 71.78125 -341.875 "/></g></g></g><g clipPath="url(#63a454272a)"><path fill="#014b21" d="M 849.394531 544.507812 L 849.394531 488.542969 L 868.007812 488.542969 C 904 488.542969 933.28125 459.265625 933.28125 423.273438 L 933.28125 412.140625 L 900.128906 412.140625 C 879.015625 412.140625 860.375 422.90625 849.394531 439.234375 L 849.394531 426.46875 L 849.367188 426.46875 C 848.773438 393.28125 821.613281 366.460938 788.285156 366.460938 L 772.988281 366.460938 L 772.988281 377.59375 C 772.988281 412.472656 800.496094 441.050781 834.957031 442.777344 L 834.957031 543.949219 C 777.769531 537.988281 733.03125 489.507812 733.03125 430.769531 C 733.03125 368.015625 784.085938 316.964844 846.835938 316.964844 C 909.585938 316.964844 960.636719 368.015625 960.636719 430.769531 C 960.636719 492.664062 910.964844 543.136719 849.394531 544.507812 M 846.835938 302.53125 C 776.125 302.53125 718.597656 360.054688 718.597656 430.769531 C 718.597656 501.480469 776.125 559.007812 846.835938 559.007812 C 917.546875 559.007812 975.074219 501.480469 975.074219 430.769531 C 975.074219 360.054688 917.546875 302.53125 846.835938 302.53125 " fillOpacity="1" fillRule="evenodd"/></g><g clipPath="url(#2b9ffaecc6)"><path fill="#00491d" d="M 1360.800781 557.5625 L 1364.28125 557.5625 C 1368.339844 557.5625 1371.625 556.210938 1371.625 552.921875 C 1371.625 550.023438 1369.496094 548.09375 1364.859375 548.09375 C 1362.925781 548.09375 1361.574219 548.285156 1360.800781 548.480469 Z M 1360.609375 575.34375 L 1353.261719 575.34375 L 1353.261719 543.648438 C 1356.164062 543.261719 1360.21875 542.679688 1365.4375 542.679688 C 1371.429688 542.679688 1374.136719 543.648438 1376.261719 545.191406 C 1378.195312 546.546875 1379.546875 548.863281 1379.546875 551.957031 C 1379.546875 555.824219 1376.648438 558.335938 1372.976562 559.492188 L 1372.976562 559.878906 C 1376.070312 560.847656 1377.617188 563.359375 1378.582031 567.613281 C 1379.546875 572.445312 1380.320312 574.183594 1380.902344 575.34375 L 1373.171875 575.34375 C 1372.203125 574.183594 1371.625 571.476562 1370.65625 567.613281 C 1370.078125 564.324219 1368.144531 562.78125 1364.085938 562.78125 L 1360.609375 562.78125 Z M 1341.085938 558.914062 C 1341.085938 573.023438 1351.71875 584.234375 1365.824219 584.234375 C 1379.546875 584.425781 1389.984375 573.023438 1389.984375 559.109375 C 1389.984375 545 1379.546875 533.597656 1365.4375 533.597656 C 1351.71875 533.597656 1341.085938 545 1341.085938 558.914062 Z M 1398.101562 558.914062 C 1398.101562 576.695312 1383.800781 590.804688 1365.632812 590.804688 C 1347.464844 590.804688 1332.96875 576.695312 1332.96875 558.914062 C 1332.96875 541.132812 1347.464844 527.21875 1365.824219 527.21875 C 1383.800781 527.21875 1398.101562 541.132812 1398.101562 558.914062 " fillOpacity="1" fillRule="nonzero"/></g></svg>